HIERARCHY
ROOT Root
{
  OFFSET 0.0 0.0 0.0
  CHANNELS 6 Xposition Yposition Zposition Zrotation Yrotation Xrotation
  JOINT Hips
  {
    OFFSET 0.0 100.0 0.0
    CHANNELS 6 Xposition Yposition Zposition Zrotation Yrotation Xrotation
    JOINT Spine1
    {
      OFFSET -0.013727 5.003763 -0.053727
      CHANNELS 3 Zrotation Yrotation Xrotation
      JOINT Spine2
      {
        OFFSET -0.0 7.125301 -0.029825
        CHANNELS 3 Zrotation Yrotation Xrotation
        JOINT Chest
        {
          OFFSET -1e-06 7.550063 -0.815971
          CHANNELS 3 Zrotation Yrotation Xrotation
          JOINT Neck1
          {
            OFFSET -0.181677 26.311295 -0.553348
            CHANNELS 3 Zrotation Yrotation Xrotation
            JOINT Neck2
            {
              OFFSET -3e-06 7.709397 2.302585
              CHANNELS 3 Zrotation Yrotation Xrotation
              JOINT Head
              {
                OFFSET -5e-06 6.128916 1.953709
                CHANNELS 3 Zrotation Yrotation Xrotation
                JOINT HeadEnd
                {
                  OFFSET 0.003598 16.065403 -1.835379
                  CHANNELS 3 Zrotation Yrotation Xrotation
                }
                JOINT Jaw
                {
                  OFFSET 0.002637 0.475592 3.094941
                  CHANNELS 3 Zrotation Yrotation Xrotation
                }
                JOINT LeftEye
                {
                  OFFSET 3.206381 5.380205 7.586883
                  CHANNELS 3 Zrotation Yrotation Xrotation
                }
                JOINT RightEye
                {
                  OFFSET -3.22244 5.361869 7.558234
                  CHANNELS 3 Zrotation Yrotation Xrotation
                }
              }
            }
          }
          JOINT LeftShoulder
          {
            OFFSET 1.621652 23.237164 5.113413
            CHANNELS 3 Zrotation Yrotation Xrotation
            JOINT LeftArm
            {
              OFFSET 14.919846 2e-06 -5.502326
              CHANNELS 3 Zrotation Yrotation Xrotation
              JOINT LeftForeArm
              {
                OFFSET 28.739307 0.0 -0.002588
                CHANNELS 3 Zrotation Yrotation Xrotation
                JOINT LeftHand
                {
                  OFFSET 27.093981 -1e-06 0.002609
                  CHANNELS 3 Zrotation Yrotation Xrotation
                  JOINT LeftHandThumb1
                  {
                    OFFSET 2.276482 -1.392045 3.191413
                    CHANNELS 3 Zrotation Yrotation Xrotation
                    JOINT LeftHandThumb2
                    {
                      OFFSET 4.012836 -1.828127 1.641654
                      CHANNELS 3 Zrotation Yrotation Xrotation
                      JOINT LeftHandThumb3
                      {
                        OFFSET 2.798515 0.0 -3e-06
                        CHANNELS 3 Zrotation Yrotation Xrotation
                        JOINT LeftHandThumbEnd
                        {
                          OFFSET 3.180793 -4e-06 4e-06
                          CHANNELS 3 Zrotation Yrotation Xrotation
                        }
                      }
                    }
                  }
                  JOINT LeftHandIndex1
                  {
                    OFFSET 3.247555 -0.531998 2.296169
                    CHANNELS 3 Zrotation Yrotation Xrotation
                    JOINT LeftHandIndex2
                    {
                      OFFSET 6.364578 0.01206 0.1786
                      CHANNELS 3 Zrotation Yrotation Xrotation
                      JOINT LeftHandIndex3
                      {
                        OFFSET 3.662364 0.0 0.0
                        CHANNELS 3 Zrotation Yrotation Xrotation
                        JOINT LeftHandIndex4
                        {
                          OFFSET 2.329242 4e-06 4e-06
                          CHANNELS 3 Zrotation Yrotation Xrotation
                          JOINT LeftHandIndexEnd
                          {
                            OFFSET 2.759615 -0.180537 -0.113024
                            CHANNELS 3 Zrotation Yrotation Xrotation
                          }
                        }
                      }
                    }
                  }
                  JOINT LeftHandMiddle1
                  {
                    OFFSET 3.163495 0.240981 1.000332
                    CHANNELS 3 Zrotation Yrotation Xrotation
                    JOINT LeftHandMiddle2
                    {
                      OFFSET 6.19078 -0.259278 -1.002548
                      CHANNELS 3 Zrotation Yrotation Xrotation
                      JOINT LeftHandMiddle3
                      {
                        OFFSET 4.35652 -4e-06 -1e-06
                        CHANNELS 3 Zrotation Yrotation Xrotation
                        JOINT LeftHandMiddle4
                        {
                          OFFSET 2.996877 -8e-06 0.0
                          CHANNELS 3 Zrotation Yrotation Xrotation
                          JOINT LeftHandMiddleEnd
                          {
                            OFFSET 2.304287 -0.294569 -0.031741
                            CHANNELS 3 Zrotation Yrotation Xrotation
                          }
                        }
                      }
                    }
                  }
                  JOINT LeftHandRing1
                  {
                    OFFSET 2.882643 -0.053652 -0.322543
                    CHANNELS 3 Zrotation Yrotation Xrotation
                    JOINT LeftHandRing2
                    {
                      OFFSET 5.854541 -0.486202 -1.373841
                      CHANNELS 3 Zrotation Yrotation Xrotation
                      JOINT LeftHandRing3
                      {
                        OFFSET 4.350578 0.0 3e-06
                        CHANNELS 3 Zrotation Yrotation Xrotation
                        JOINT LeftHandRing4
                        {
                          OFFSET 2.651321 7e-06 2e-06
                          CHANNELS 3 Zrotation Yrotation Xrotation
                          JOINT LeftHandRingEnd
                          {
                            OFFSET 1.936105 0.077687 -7.1e-05
                            CHANNELS 3 Zrotation Yrotation Xrotation
                          }
                        }
                      }
                    }
                  }
                  JOINT LeftHandPinky1
                  {
                    OFFSET 2.8655 -0.310005 -1.600378
                    CHANNELS 3 Zrotation Yrotation Xrotation
                    JOINT LeftHandPinky2
                    {
                      OFFSET 5.087849 -1.331141 -1.77123
                      CHANNELS 3 Zrotation Yrotation Xrotation
                      JOINT LeftHandPinky3
                      {
                        OFFSET 3.070974 4e-06 0.0
                        CHANNELS 3 Zrotation Yrotation Xrotation
                        JOINT LeftHandPinky4
                        {
                          OFFSET 1.549672 0.0 1e-06
                          CHANNELS 3 Zrotation Yrotation Xrotation
                          JOINT LeftHandPinkyEnd
                          {
                            OFFSET 1.944893 -0.157802 0.057219
                            CHANNELS 3 Zrotation Yrotation Xrotation
                          }
                        }
                      }
                    }
                  }
                }
              }
            }
          }
          JOINT RightShoulder
          {
            OFFSET -1.380118 23.180309 5.214158
            CHANNELS 3 Zrotation Yrotation Xrotation
            JOINT RightArm
            {
              OFFSET -15.037196 1.2e-05 -5.545604
              CHANNELS 3 Zrotation Yrotation Xrotation
              JOINT RightForeArm
              {
                OFFSET -28.736639 2e-06 -0.002597
                CHANNELS 3 Zrotation Yrotation Xrotation
                JOINT RightHand
                {
                  OFFSET -27.133619 -0.0 0.002613
                  CHANNELS 3 Zrotation Yrotation Xrotation
                  JOINT RightHandThumb1
                  {
                    OFFSET -2.274032 -1.383988 3.163127
                    CHANNELS 3 Zrotation Yrotation Xrotation
                    JOINT RightHandThumb2
                    {
                      OFFSET -4.011429 -1.827466 1.640914
                      CHANNELS 3 Zrotation Yrotation Xrotation
                      JOINT RightHandThumb3
                      {
                        OFFSET -2.794935 -4e-06 -3e-06
                        CHANNELS 3 Zrotation Yrotation Xrotation
                        JOINT RightHandThumbEnd
                        {
                          OFFSET -3.183852 4e-06 1e-06
                          CHANNELS 3 Zrotation Yrotation Xrotation
                        }
                      }
                    }
                  }
                  JOINT RightHandIndex1
                  {
                    OFFSET -3.253266 -0.520057 2.282866
                    CHANNELS 3 Zrotation Yrotation Xrotation
                    JOINT RightHandIndex2
                    {
                      OFFSET -6.341917 0.012471 0.178266
                      CHANNELS 3 Zrotation Yrotation Xrotation
                      JOINT RightHandIndex3
                      {
                        OFFSET -3.654871 -8e-06 -0.0
                        CHANNELS 3 Zrotation Yrotation Xrotation
                        JOINT RightHandIndex4
                        {
                          OFFSET -2.327586 0.0 1e-06
                          CHANNELS 3 Zrotation Yrotation Xrotation
                          JOINT RightHandIndexEnd
                          {
                            OFFSET -2.76179 -0.180656 -0.113078
                            CHANNELS 3 Zrotation Yrotation Xrotation
                          }
                        }
                      }
                    }
                  }
                  JOINT RightHandMiddle1
                  {
                    OFFSET -3.168106 0.246593 1.00103
                    CHANNELS 3 Zrotation Yrotation Xrotation
                    JOINT RightHandMiddle2
                    {
                      OFFSET -6.180828 -0.258836 -1.000895
                      CHANNELS 3 Zrotation Yrotation Xrotation
                      JOINT RightHandMiddle3
                      {
                        OFFSET -4.348901 0.0 -0.0
                        CHANNELS 3 Zrotation Yrotation Xrotation
                        JOINT RightHandMiddle4
                        {
                          OFFSET -3.00024 -4e-06 -2e-06
                          CHANNELS 3 Zrotation Yrotation Xrotation
                          JOINT RightHandMiddleEnd
                          {
                            OFFSET -2.30252 -0.29437 -0.031706
                            CHANNELS 3 Zrotation Yrotation Xrotation
                          }
                        }
                      }
                    }
                  }
                  JOINT RightHandRing1
                  {
                    OFFSET -2.88569 -0.067952 -0.308858
                    CHANNELS 3 Zrotation Yrotation Xrotation
                    JOINT RightHandRing2
                    {
                      OFFSET -5.854198 -0.48613 -1.373731
                      CHANNELS 3 Zrotation Yrotation Xrotation
                      JOINT RightHandRing3
                      {
                        OFFSET -4.33881 -4e-06 -0.0
                        CHANNELS 3 Zrotation Yrotation Xrotation
                        JOINT RightHandRing4
                        {
                          OFFSET -2.654903 -4e-06 4e-06
                          CHANNELS 3 Zrotation Yrotation Xrotation
                          JOINT RightHandRingEnd
                          {
                            OFFSET -1.933568 0.077527 -5.2e-05
                            CHANNELS 3 Zrotation Yrotation Xrotation
                          }
                        }
                      }
                    }
                  }
                  JOINT RightHandPinky1
                  {
                    OFFSET -2.866425 -0.342796 -1.584145
                    CHANNELS 3 Zrotation Yrotation Xrotation
                    JOINT RightHandPinky2
                    {
                      OFFSET -5.091371 -1.332055 -1.772385
                      CHANNELS 3 Zrotation Yrotation Xrotation
                      JOINT RightHandPinky3
                      {
                        OFFSET -3.062664 -4e-06 1e-06
                        CHANNELS 3 Zrotation Yrotation Xrotation
                        JOINT RightHandPinky4
                        {
                          OFFSET -1.546529 4e-06 -2e-06
                          CHANNELS 3 Zrotation Yrotation Xrotation
                          JOINT RightHandPinkyEnd
                          {
                            OFFSET -1.945119 -0.157718 0.057211
                            CHANNELS 3 Zrotation Yrotation Xrotation
                          }
                        }
                      }
                    }
                  }
                }
              }
            }
          }
        }
      }
    }
    JOINT LeftLeg
    {
      OFFSET 10.043214 -8.434526 2.595655
      CHANNELS 3 Zrotation Yrotation Xrotation
      JOINT LeftShin
      {
        OFFSET -1e-06 -43.221752 -0.802913
        CHANNELS 3 Zrotation Yrotation Xrotation
        JOINT LeftFoot
        {
          OFFSET 1e-06 -42.155094 -3.481523
          CHANNELS 3 Zrotation Yrotation Xrotation
          JOINT LeftToeBase
          {
            OFFSET 0.0 -5.059472 13.231529
            CHANNELS 3 Zrotation Yrotation Xrotation
            JOINT LeftToeEnd
            {
              OFFSET -0.009607 -1.647619 6.513017
              CHANNELS 3 Zrotation Yrotation Xrotation
            }
          }
        }
      }
    }
    JOINT RightLeg
    {
      OFFSET -10.047278 -8.29526 2.620317
      CHANNELS 3 Zrotation Yrotation Xrotation
      JOINT RightShin
      {
        OFFSET 1e-06 -43.362206 -0.805556
        CHANNELS 3 Zrotation Yrotation Xrotation
        JOINT RightFoot
        {
          OFFSET 2e-06 -42.117393 -3.478398
          CHANNELS 3 Zrotation Yrotation Xrotation
          JOINT RightToeBase
          {
            OFFSET -0.0 -5.079609 13.284196
            CHANNELS 3 Zrotation Yrotation Xrotation
            JOINT RightToeEnd
            {
              OFFSET 0.009532 -1.634378 6.460591
              CHANNELS 3 Zrotation Yrotation Xrotation
            }
          }
        }
      }
    }
  }
}
MOTION
Frames: 4
Frame Time: 0.03333333333333333
-0.75354 0.0 0.181301 0.0 58.446804 0.0 0.0 98.466339 0.0 3.960726 0.000179 -2.2214 0.699873 0.815515 -0.567098 0.082143 4.380198 -5.538392 -0.85096 3.654803 20.763287 -23.692152 12.289559 0.808348 7.148722 25.829128 -1.551802 -6.790553 30.410557 -27.004042 0.002413 0.000149 0.00082 -0.074843 -0.49905 0.042666 0.480328 -4.208314 -10.327743 -0.645765 3.178562 -10.356269 -17.62299 1.855214 16.162571 -59.348286 -10.528342 10.589771 -0.126508 -40.43808 0.051292 0.856567 3.409471 1.890588 -5.868188 9.885914 0.638566 -10.917108 -0.357351 7.156469 0.006307 8.768839 0.000777 -16.166731 17.53607 5.817994 -1.84721 2.496763 -2.527249 -10.167233 4.670588 4.639035 -20.995834 -0.01663 -0.011771 -21.247501 2.423956 -3.576921 0.013441 -0.007808 -0.013771 -1.370284 2.236909 -0.748774 -21.34462 0.575384 3.001318 -13.824986 -0.006736 0.000137 -23.879898 -0.27026 -0.838145 -59.874294 2.573509 -0.944843 -0.292016 1.669982 0.827788 -14.224306 0.094601 1.281192 -34.207188 -0.292244 0.978244 -20.04081 0.94491 1.204401 -0.002244 -0.001117 0.008461 -3.45378 0.770626 0.493359 -15.936579 -3.150902 2.990522 -6.338992 0.003527 0.012132 -18.103493 3.633836 -4.888415 -0.002173 0.005804 -0.010847 10.398692 16.329819 24.346535 54.384514 17.187145 29.618074 -1.134437 37.376942 -0.550538 -4.135008 2.923332 2.133287 2.236336 -5.241936 -3.169776 14.259465 -0.888869 6.966154 -0.010591 -12.722322 0.010753 15.962854 -17.511496 2.935741 1.653467 -1.946793 -2.891602 4.735469 -4.182606 4.998239 11.037035 0.00314 -0.010705 12.120454 -3.759171 -2.853025 -0.000235 0.003661 0.001129 1.286963 -1.944762 -1.492412 14.826962 0.607063 3.870326 14.250539 -1.342831 -6.67707 19.660362 0.146309 -0.640939 49.567005 -0.729159 -5.961523 0.343345 -1.528532 -0.016399 20.267591 3.738748 2.313489 18.832571 0.020194 -0.00034 10.761427 -0.472102 1.424168 -0.005233 0.001336 -0.01312 3.277146 0.288343 -0.578355 21.522129 11.909682 2.269398 8.157379 -0.012214 -0.011786 18.428186 -3.775287 -4.938929 -0.000112 0.003679 -0.000136 -0.99752 -15.884994 -14.759027 -0.163554 -0.600802 8.248768 -21.128136 -21.869402 14.439105 1.56196 -1.674142 -1.919849 -0.002621 -0.006282 0.00457 -13.956948 -42.663963 9.502235 0.016235 -0.122034 14.697258 12.161092 -27.555838 -16.750937 -1.465965 1.161518 -0.307774 0.000995 0.00777 0.005068 
-0.645238 0.0 0.108537 0.0 57.640324 0.0 0.0 98.503304 0.0 3.929505 0.004333 -2.279198 0.703901 0.807375 -0.582521 0.082671 4.312717 -5.564987 -0.809818 3.551712 20.850588 -23.578978 12.320544 1.068007 7.043394 25.663181 -1.613023 -6.673265 30.169308 -27.005903 -0.002113 0.000688 0.001101 -0.078119 -0.488813 0.050647 0.478828 -4.187317 -10.323562 -0.647904 3.210005 -10.374159 -17.531193 1.692234 16.213554 -59.207535 -10.541444 10.985558 -0.161231 -40.347092 0.064069 0.554722 3.547186 2.169221 -5.902645 9.840378 0.735797 -10.904996 -0.312976 7.153411 0.001785 8.795471 0.001835 -16.199774 17.605688 5.818728 -1.850768 2.496886 -2.493142 -10.188519 4.688919 4.615988 -21.039318 -0.013229 -0.021704 -21.298532 2.48439 -3.596108 -0.00231 -0.007455 0.000376 -1.373851 2.252435 -0.722124 -21.380281 0.557552 3.003144 -13.853972 -0.004945 -0.01555 -23.982428 -0.259758 -0.827829 -60.299377 2.520592 -0.920376 -0.303499 1.686267 0.857705 -14.237333 0.081639 1.263324 -34.287838 -0.295718 0.9706 -20.046993 0.95026 1.230363 -0.00012 0.004551 -0.007476 -3.480805 0.811905 0.52149 -15.925732 -3.200099 2.984666 -6.351439 -0.001328 -0.001288 -18.149736 3.64764 -4.913375 -0.000267 0.000187 -0.000121 10.531904 16.293501 24.525799 54.056442 17.038404 29.206146 -1.141113 36.500568 -0.5434 -4.105004 2.782258 1.466117 2.260396 -5.194464 -3.14483 14.263089 -0.857601 6.971506 -0.005377 -12.712746 0.015521 15.912829 -17.458122 2.924879 1.668796 -1.954534 -2.894998 4.732121 -4.18359 5.001052 11.035066 0.005841 -0.001448 12.135728 -3.745595 -2.861919 -0.006399 -0.001861 0.000506 1.298415 -1.94352 -1.49469 14.809196 0.580439 3.861969 14.233993 -1.339391 -6.658324 19.612791 0.160687 -0.642818 49.375111 -0.705625 -5.934845 0.35066 -1.534476 -0.039691 20.247637 3.722012 2.345521 18.800098 -0.004587 -0.007418 10.757247 -0.478113 1.41597 -0.012086 -0.001254 0.00548 3.279521 0.276395 -0.601714 21.514545 11.893384 2.296235 8.17117 -0.010017 0.004523 18.403408 -3.789527 -4.943471 -0.006552 -0.017283 0.013208 -1.009997 -15.619893 -14.523705 -0.158736 -0.579893 8.270021 -20.786861 -21.461618 13.982389 1.562708 -1.69457 -1.906245 0.000709 0.006296 -0.001277 -14.001459 -42.197365 9.521455 0.027514 -0.130225 14.495808 12.09379 -27.233482 -16.52993 -1.466335 1.186945 -0.287725 -0.000946 0.005522 0.00361 
-0.527648 0.0 -0.006897 0.0 56.80772 0.0 0.0 98.543472 0.0 3.902965 0.008827 -2.342333 0.717405 0.760019 -0.609245 0.095163 4.281122 -5.597178 -0.81336 3.469807 20.913219 -23.460194 12.382694 1.295998 6.935085 25.498381 -1.651563 -6.538448 29.931774 -26.943352 -0.002164 -0.010347 0.002394 -0.078505 -0.519229 0.056916 0.489652 -4.226213 -10.324203 -0.650946 3.170819 -10.375301 -17.575123 1.65058 16.272589 -58.869865 -10.531583 11.191963 -0.126206 -40.125957 0.090727 0.266337 3.722863 2.476739 -5.89187 9.83258 0.756368 -10.894421 -0.332986 7.178228 0.001076 8.785573 0.011711 -16.141813 17.562851 5.869688 -1.847815 2.49004 -2.509453 -10.191887 4.687963 4.629347 -21.020212 -0.00019 -0.000576 -21.263771 2.443611 -3.6091 -0.001888 0.002518 -0.01041 -1.384388 2.250901 -0.742873 -21.390137 0.571696 2.99553 -13.875887 0.001488 -0.005477 -23.98934 -0.24878 -0.867723 -60.175606 2.483706 -0.909249 -0.318276 1.69137 0.835323 -14.236081 0.088315 1.284794 -34.334255 -0.280086 0.954455 -20.088942 0.976372 1.208553 0.007912 -1.9e-05 -0.002513 -3.490137 0.808398 0.492635 -15.927002 -3.182698 3.007256 -6.358843 0.005725 -0.003535 -18.164696 3.652675 -4.920384 -0.001122 -0.008999 -0.004344 10.800258 16.131535 24.353624 53.684883 16.849148 29.00108 -1.161584 35.66423 -0.528192 -3.900537 2.611391 0.93402 2.227579 -5.237061 -3.088262 14.291472 -0.856991 7.010799 -0.00449 -12.695682 -0.017046 15.890608 -17.43504 2.94157 1.669087 -1.95405 -2.871252 4.729007 -4.179179 4.976196 11.019049 -0.000771 0.010019 12.105775 -3.734396 -2.877974 -0.004104 -0.006573 0.010456 1.296025 -1.936185 -1.492505 14.803856 0.572357 3.866625 14.254728 -1.330943 -6.690596 19.609129 0.150951 -0.657678 49.432285 -0.644087 -5.923279 0.35558 -1.522037 -0.013002 20.202991 3.689247 2.289294 18.769096 0.005204 0.002599 10.735324 -0.48388 1.40909 0.001794 0.000316 -0.011427 3.285005 0.306003 -0.566962 21.461653 11.810184 2.230687 8.156516 -0.006471 0.004415 18.353951 -3.804178 -4.943684 -6.4e-05 0.006225 -0.004902 -0.971568 -15.353204 -14.325736 -0.166935 -0.570576 8.236015 -20.465969 -21.072359 13.687285 1.57487 -1.694557 -1.939319 5.6e-05 -0.005359 0.002325 -14.076588 -41.751968 9.549634 0.039462 -0.138811 14.312616 12.109256 -26.973543 -16.45616 -1.468434 1.1777 -0.295767 0.000276 -0.000951 -0.003789 
-0.363546 0.0 -0.107675 0.0 55.88662 0.0 0.0 98.58329 0.0 3.896818 0.013605 -2.411714 0.724469 0.740698 -0.643273 0.106232 4.270041 -5.595094 -0.845895 3.357905 20.921522 -23.347887 12.446843 1.387028 6.811996 25.323536 -1.681523 -6.302261 29.638639 -26.725079 0.00161 0.000365 0.002473 -0.077699 -0.478703 0.065162 0.489747 -4.204411 -10.336536 -0.649442 3.211955 -10.388453 -17.73554 1.796119 16.297813 -58.202332 -10.511477 11.130023 -0.144056 -39.894032 0.180903 0.000469 3.900699 2.797084 -5.856195 9.868667 0.757277 -10.967746 -0.383042 7.154666 -0.006567 8.771284 0.020826 -16.076397 17.564703 5.884902 -1.841927 2.492098 -2.496998 -10.158678 4.677493 4.59102 -20.964445 0.017722 0.020497 -21.236881 2.451299 -3.596214 -0.00455 -0.013763 -0.001334 -1.357148 2.223287 -0.740649 -21.300806 0.613996 2.997556 -13.804502 0.01161 0.021119 -23.839668 -0.246775 -0.859266 -59.796551 2.495417 -0.872604 -0.298797 1.663313 0.846088 -14.191833 0.114349 1.2859 -34.174931 -0.265643 0.960471 -20.016573 0.973328 1.194774 -0.003987 -0.007994 -0.00788 -3.432503 0.765141 0.528963 -15.913527 -3.139003 2.982858 -6.326346 0.012243 -0.000954 -18.092491 3.651669 -4.911789 -0.010076 0.004555 -0.007135 11.90097 15.306389 22.160486 53.060307 16.607529 28.875387 -1.20312 34.933689 -0.525232 -3.609722 2.455553 0.402643 2.228611 -5.317332 -3.178692 14.326257 -0.758871 6.940288 -0.001059 -12.6453 0.001334 15.81427 -17.382378 2.984892 1.660552 -1.954198 -2.85879 4.72602 -4.155453 5.01639 10.997707 0.001886 -0.017975 12.070032 -3.712299 -2.844897 -0.000899 -0.001452 -0.001191 1.287198 -1.902917 -1.486725 14.790746 0.542772 3.873461 14.229581 -1.337774 -6.64649 19.601795 0.157733 -0.648135 49.442509 -0.676494 -5.908371 0.356166 -1.482016 -0.010656 20.192724 3.646516 2.300859 18.770685 -0.01296 0.009144 10.742333 -0.475196 1.402972 0.001488 -0.007966 0.006328 3.262795 0.347836 -0.5636 21.455971 11.7478 2.249377 8.149807 -0.012306 0.003047 18.369585 -3.781267 -4.922789 -0.002053 0.007768 -0.005207 -1.007602 -15.066831 -14.063188 -0.164229 -0.497915 8.258255 -20.092886 -20.695524 13.302938 1.570195 -1.691468 -1.944908 -0.004238 0.000808 0.005995 -14.171501 -41.292343 9.593305 0.043337 -0.133612 14.082866 11.945601 -26.606407 -15.937063 -1.466847 1.159517 -0.269927 -0.001809 0.00051 0.004252 
